<svg xmlns="http://www.w3.org/2000/svg" version="1.1" xmlns:xlink="http://www.w3.org/1999/xlink" xmlns:svgjs="http://svgjs.dev/svgjs" width="2000" height="818" viewBox="0 0 2000 818"><g transform="matrix(1,0,0,1,-1.2121212121212466,-0.7585739049895892)"><svg viewBox="0 0 396 162" data-background-color="#ffffff" preserveAspectRatio="xMidYMid meet" height="818" width="2000" xmlns="http://www.w3.org/2000/svg" xmlns:xlink="http://www.w3.org/1999/xlink"><g id="tight-bounds" transform="matrix(1,0,0,1,0.2400000000000091,0.15023101785857307)"><svg viewBox="0 0 395.52 161.69953796428285" height="161.69953796428285" width="395.52"><g><svg viewBox="0 0 668.3483811728996 273.2393417142857" height="161.69953796428285" width="395.52"><g transform="matrix(1,0,0,1,272.8283811728997,76.47585875235512)"><svg viewBox="0 0 395.5199999999999 120.28762420957543" height="120.28762420957543" width="395.5199999999999"><g id="textblocktransform"><svg viewBox="0 0 395.5199999999999 120.28762420957543" height="120.28762420957543" width="395.5199999999999" id="textblock"><g><svg viewBox="0 0 395.5199999999999 120.28762420957543" height="120.28762420957543" width="395.5199999999999"><g transform="matrix(1,0,0,1,0,0)"><svg width="395.5199999999999" viewBox="3 -39.65 166.03 50.5" height="120.28762420957543" data-palette-color="#ffffff"><g class="wordmark-text-0" data-fill-palette-color="primary" id="text-0"><path d="M24.6-34.55L24.6 0 16.5 0 7.75-28.3Q8.15-24.7 8.38-21.68 8.6-18.65 8.6-14.5L8.6-14.5 8.6 0 3 0 3-34.55 11.05-34.55 19.8-6.25Q19.5-8.05 19.23-11.35 18.95-14.65 18.95-18.05L18.95-18.05 18.95-34.55 24.6-34.55ZM39.85-27.15Q44.85-27.15 47.62-23.65 50.4-20.15 50.4-13.25L50.4-13.25Q50.4-6.65 47.6-2.95 44.8 0.75 39.85 0.75L39.85 0.75Q34.9 0.75 32.1-2.88 29.3-6.5 29.3-13.25L29.3-13.25Q29.3-19.95 32.1-23.55 34.9-27.15 39.85-27.15L39.85-27.15ZM39.85-22.5Q37.7-22.5 36.7-20.38 35.7-18.25 35.7-13.25L35.7-13.25Q35.7-8.2 36.7-6.08 37.7-3.95 39.85-3.95L39.85-3.95Q42-3.95 43-6.08 44-8.2 44-13.25L44-13.25Q44-18.3 43-20.4 42-22.5 39.85-22.5L39.85-22.5ZM66.09-5L68.25-1.2Q65.8 0.75 62.49 0.75L62.49 0.75Q59.05 0.75 57.24-1.23 55.45-3.2 55.45-6.6L55.45-6.6 55.45-22 52.34-22 52.34-26.45 55.45-26.45 55.45-32.3 61.59-33.05 61.59-26.45 66.59-26.45 66-22 61.59-22 61.59-6.6Q61.59-4.2 63.64-4.2L63.64-4.2Q64.3-4.2 64.8-4.38 65.3-4.55 66.09-5L66.09-5ZM83.14-27.15Q85.99-27.15 87.64-25.1 89.29-23.05 89.29-19.6L89.29-19.6 89.29 0 83.14 0 83.14-18.9Q83.14-20.8 82.62-21.63 82.09-22.45 81.09-22.45L81.09-22.45Q78.99-22.45 76.94-18.5L76.94-18.5 76.94 0 70.79 0 70.79-37 76.94-37.65 76.94-23.3Q78.19-25.25 79.67-26.2 81.14-27.15 83.14-27.15L83.14-27.15ZM94.84-26.45L100.99-26.45 100.99 0 94.84 0 94.84-26.45ZM97.89-39.65Q99.54-39.65 100.56-38.6 101.59-37.55 101.59-35.9L101.59-35.9Q101.59-34.3 100.56-33.25 99.54-32.2 97.89-32.2L97.89-32.2Q96.24-32.2 95.21-33.25 94.19-34.3 94.19-35.9L94.19-35.9Q94.19-37.55 95.21-38.6 96.24-39.65 97.89-39.65L97.89-39.65ZM119.04-27.15Q121.89-27.15 123.54-25.1 125.19-23.05 125.19-19.6L125.19-19.6 125.19 0 119.04 0 119.04-18.9Q119.04-20.8 118.51-21.63 117.99-22.45 116.99-22.45L116.99-22.45Q114.89-22.45 112.84-18.5L112.84-18.5 112.84 0 106.69 0 106.69-26.45 112.04-26.45 112.49-23Q113.84-25.1 115.36-26.13 116.89-27.15 119.04-27.15L119.04-27.15ZM148.69-29.85L150.24-25.1Q149.19-24.6 147.71-24.4 146.24-24.2 144.03-24.2L144.03-24.2Q146.13-23.2 147.16-21.53 148.19-19.85 148.19-17.4L148.19-17.4Q148.19-13.4 145.74-10.95 143.28-8.5 139.09-8.5L139.09-8.5Q137.84-8.5 136.53-8.9L136.53-8.9Q135.63-8.15 135.63-6.85L135.63-6.85Q135.63-5.85 136.19-5.35 136.74-4.85 138.24-4.85L138.24-4.85 141.03-4.85Q145.03-4.85 147.38-2.78 149.74-0.7 149.74 2.5L149.74 2.5Q149.74 6.3 146.81 8.58 143.88 10.85 138.49 10.85L138.49 10.85Q132.78 10.85 130.51 8.75 128.24 6.65 128.24 2.6L128.24 2.6 133.69 2.6Q133.69 4.75 134.69 5.65 135.69 6.55 138.53 6.55L138.53 6.55Q141.28 6.55 142.44 5.6 143.59 4.65 143.59 2.9L143.59 2.9Q143.59 1.2 142.63 0.4 141.69-0.4 139.69-0.4L139.69-0.4 137.78-0.4Q133.99-0.4 132.24-1.75 130.49-3.1 130.49-5.45L130.49-5.45Q130.49-6.8 131.21-8.03 131.94-9.25 133.19-10.2L133.19-10.2Q131.13-11.5 130.19-13.3 129.24-15.1 129.24-17.7L129.24-17.7Q129.24-22.05 131.84-24.58 134.44-27.1 138.84-27.1L138.84-27.1Q142.09-27.1 144.21-27.8 146.34-28.5 148.69-29.85L148.69-29.85ZM138.84-23Q137.09-23 136.19-21.75 135.28-20.5 135.28-17.8L135.28-17.8Q135.28-15.25 136.19-13.88 137.09-12.5 138.78-12.5L138.78-12.5Q140.53-12.5 141.38-13.73 142.24-14.95 142.24-17.85L142.24-17.85Q142.24-20.55 141.41-21.78 140.59-23 138.84-23L138.84-23ZM160.33-27.15Q165.03-27.15 168.28-24.05L168.28-24.05 165.93-20.7Q164.53-21.7 163.28-22.2 162.03-22.7 160.73-22.7L160.73-22.7Q159.28-22.7 158.46-21.93 157.63-21.15 157.63-19.8L157.63-19.8Q157.63-18.45 158.56-17.63 159.48-16.8 162.28-15.7L162.28-15.7Q165.73-14.35 167.38-12.5 169.03-10.65 169.03-7.55L169.03-7.55Q169.03-3.7 166.33-1.48 163.63 0.75 159.48 0.75L159.48 0.75Q156.78 0.75 154.51-0.23 152.23-1.2 150.53-2.95L150.53-2.95 153.53-6.25Q156.33-3.8 159.23-3.8L159.23-3.8Q160.88-3.8 161.83-4.67 162.78-5.55 162.78-7.1L162.78-7.1Q162.78-8.25 162.38-8.97 161.98-9.7 160.98-10.33 159.98-10.95 157.98-11.7L157.98-11.7Q154.53-13.05 153.06-14.85 151.58-16.65 151.58-19.45L151.58-19.45Q151.58-22.8 153.96-24.98 156.33-27.15 160.33-27.15L160.33-27.15Z" fill="#ffffff" data-fill-palette-color="primary"></path></g></svg></g></svg></g></svg></g></svg></g><g><svg viewBox="0 0 244.43135999999998 273.2393417142857" height="273.2393417142857" width="244.43135999999998"><g><svg xmlns="http://www.w3.org/2000/svg" xmlns:xlink="http://www.w3.org/1999/xlink" version="1.1" x="0" y="0" viewBox="8 3 84 93.9" enable-background="new 0 0 100 100" xml:space="preserve" height="273.2393417142857" width="244.43135999999998" class="icon-icon-0" data-fill-palette-color="accent" id="icon-0"><path d="M92 30.9C92 26.2 88.2 22.3 83.4 22.3 80.7 22.3 78.3 23.6 76.7 25.6L57.9 14.8C58.3 13.8 58.5 12.8 58.5 11.6 58.5 6.9 54.7 3 49.9 3S41.3 6.8 41.3 11.6C41.3 12.7 41.5 13.8 41.9 14.7L23.3 25.7C21.7 23.7 19.3 22.4 16.6 22.4 11.9 22.4 8 26.2 8 31 8 35.2 11.1 38.7 15.1 39.4V60.7C11.1 61.3 8 64.8 8 69.1 8 73.8 11.8 77.7 16.6 77.7 19.3 77.7 21.7 76.5 23.2 74.5L42 85.3C41.6 86.2 41.4 87.3 41.4 88.3 41.4 93 45.2 96.9 50 96.9S58.6 93.1 58.6 88.3C58.6 87.2 58.4 86.2 58 85.3L76.8 74.4C78.4 76.3 80.8 77.6 83.4 77.6 88.1 77.6 92 73.8 92 69 92 64.7 88.8 61.1 84.7 60.5V39.3C88.8 38.8 92 35.2 92 30.9M83.4 24.8C86.8 24.8 89.5 27.5 89.5 30.9S86.8 37 83.4 37 77.3 34.3 77.3 30.9 80 24.8 83.4 24.8M50 5.5C53.4 5.5 56.1 8.2 56.1 11.6 56.1 12.6 55.8 13.6 55.4 14.5L55.3 14.6V14.7C54.2 16.5 52.3 17.7 50.1 17.7 46.7 17.7 44 15 44 11.6S46.6 5.5 50 5.5M10.5 30.9C10.5 27.5 13.2 24.8 16.6 24.8S22.7 27.5 22.7 30.9 20 37 16.6 37 10.5 34.3 10.5 30.9M16.6 75.2C13.2 75.2 10.5 72.5 10.5 69.1S13.2 63 16.6 63 22.7 65.7 22.7 69.1C22.7 72.4 20 75.2 16.6 75.2M50 94.5C46.6 94.5 43.9 91.8 43.9 88.4S46.6 82.3 50 82.3 56.1 85 56.1 88.4C56.1 91.7 53.4 94.5 50 94.5M56.8 83.2C55.2 81.2 52.8 79.8 50 79.8S44.8 81.1 43.2 83.2L24.5 72.4C24.9 71.4 25.2 70.3 25.2 69.1 25.2 64.7 21.9 61.1 17.7 60.6V39.4C21.9 38.9 25.2 35.3 25.2 30.9 25.2 29.8 25 28.7 24.6 27.7L43.3 16.8C44.9 18.8 47.3 20.1 50 20.1S55.1 18.8 56.7 16.8L75.5 27.7C75.1 28.7 74.9 29.7 74.9 30.9 74.9 35.2 78.1 38.8 82.2 39.4V60.6C78.1 61.2 74.9 64.8 74.9 69.1 74.9 70.3 75.1 71.4 75.6 72.4zM89.5 69.1C89.5 72.5 86.8 75.2 83.4 75.2S77.3 72.5 77.3 69.1 80 63 83.4 63 89.5 65.7 89.5 69.1M69.5 64.8C70 65.2 70.1 66 69.7 66.5 69.5 66.8 69.1 66.9 68.8 66.9S68.3 66.8 68 66.6C62.9 62.4 57.5 59.7 56.4 59.2 55.8 58.9 55.5 58.4 55.5 57.8V49.8C55.5 49.4 55.7 49 56 48.8 56.7 48.3 57.1 47.5 57.1 46.7V38.4C57.1 34.9 54.3 32.1 50.8 32.1H49C45.5 32.1 42.7 34.9 42.7 38.4V46.7C42.7 47.5 43.1 48.3 43.8 48.8 44.1 49 44.3 49.4 44.3 49.8V57.8C44.3 58.4 44 59 43.4 59.2 42.4 59.7 36.9 62.5 31.8 66.6 31.3 67 30.5 67 30.1 66.4 29.7 65.9 29.7 65.1 30.3 64.7 35 60.8 40.1 58.1 41.9 57.2V50.3C40.8 49.4 40.2 48 40.2 46.6V38.3C40.2 33.5 44.1 29.6 48.9 29.6H50.7C55.5 29.6 59.4 33.5 59.4 38.3V46.6C59.4 48 58.8 49.4 57.7 50.3V57.2C59.7 58.2 64.8 61 69.5 64.8" fill="#bb84e8" data-fill-palette-color="accent"></path></svg></g></svg></g></svg></g><defs></defs></svg><rect width="395.52" height="161.69953796428285" fill="none" stroke="none" visibility="hidden"></rect></g></svg></g></svg>