<svg xmlns="http://www.w3.org/2000/svg" version="1.0" width="24.000000pt" height="24.000000pt" viewBox="0 0 24.000000 24.000000" preserveAspectRatio="xMidYMid meet">

<g transform="translate(0.000000,24.000000) scale(0.100000,-0.100000)" fill="#877eff" stroke="none">
<path d="M7 223 c-4 -3 -7 -48 -7 -99 0 -112 2 -114 120 -114 117 0 120 3 120 105 0 66 -3 85 -14 85 -8 0 -16 7 -20 15 -4 12 -25 15 -99 15 -52 0 -97 -3 -100 -7z m193 -98 c0 -47 3 -85 8 -85 4 0 6 34 4 75 -2 49 0 75 7 75 7 0 11 -29 11 -79 0 -93 2 -91 -110 -91 -113 0 -110 -3 -110 101 l0 89 95 0 95 0 0 -85z" fill="#877eff"/>
<path d="M73 183 c20 -2 54 -2 75 0 20 2 3 4 -38 4 -41 0 -58 -2 -37 -4z" fill="#877eff"/>
<path d="M37 164 c-4 -4 -7 -20 -7 -36 0 -25 3 -28 36 -28 34 0 35 1 32 33 -2 26 -8 33 -28 35 -14 2 -29 0 -33 -4z m51 -32 c3 -18 -1 -22 -22 -22 -19 0 -26 5 -26 18 0 39 43 43 48 4z" fill="#877eff"/>
<path d="M133 163 c9 -2 23 -2 30 0 6 3 -1 5 -18 5 -16 0 -22 -2 -12 -5z" fill="#877eff"/>
<path d="M133 133 c9 -2 25 -2 35 0 9 3 1 5 -18 5 -19 0 -27 -2 -17 -5z" fill="#877eff"/>
<path d="M133 103 c9 -2 25 -2 35 0 9 3 1 5 -18 5 -19 0 -27 -2 -17 -5z" fill="#877eff"/>
<path d="M53 73 c9 -2 23 -2 30 0 6 3 -1 5 -18 5 -16 0 -22 -2 -12 -5z" fill="#877eff"/>
<path d="M133 73 c9 -2 23 -2 30 0 6 3 -1 5 -18 5 -16 0 -22 -2 -12 -5z" fill="#877eff"/>
<path d="M53 53 c9 -2 23 -2 30 0 6 3 -1 5 -18 5 -16 0 -22 -2 -12 -5z" fill="#877eff"/>
<path d="M133 53 c9 -2 25 -2 35 0 9 3 1 5 -18 5 -19 0 -27 -2 -17 -5z" fill="#877eff"/>
</g>
</svg>